<?xml version="1.0" encoding="UTF-8"?>
<svg id="_레이어_2" data-name="레이어 2" xmlns="http://www.w3.org/2000/svg" viewBox="0 0 307.52 94.57">
  <defs>
    <style>
      .cls-1 {
        fill: #ed761b;
      }

      .cls-1, .cls-2, .cls-3, .cls-4 {
        stroke-width: 0px;
      }

      .cls-2 {
        fill: none;
      }

      .cls-3 {
        fill: #888;
      }

      .cls-4 {
        fill: #649832;
      }
    </style>
  </defs>
  <g id="_레이어_1-2" data-name="레이어 1">
    <g>
      <g>
        <g>
          <path class="cls-2" d="M15.81,69.68c.16,2.69,1.51,7.1,4.14,10.87,2.24,3.21,4.25,4.25,4.87,4.25s2.63-1.04,4.87-4.25c2.63-3.78,3.98-8.18,4.14-10.87l.69-11.33-18.91,7.87.21,3.47Z"/>
          <g>
            <path class="cls-2" d="M26.89,27.93h0c-.59-.15-1.12-.45-1.61-.83-.49.38-1.02.68-1.61.83h0c-2.95.76-6.37-1.96-8.25-4.95-6.91,2.99-11.6,10.07-11.12,18.09l.93,15.36,8.5-3.53,1.04-.43-.73-11.99c-.15-2.43.69-4.74,2.36-6.51,1.67-1.77,3.92-2.75,6.36-2.75h4.13c2.43,0,4.69.98,6.36,2.75,1.67,1.77,2.5,4.08,2.36,6.51l-.21,3.41,8.56-3.56,1.41-.59c-.07-7.2-4.29-13.47-10.44-16.44-1.92,2.86-5.2,5.36-8.04,4.63Z"/>
            <g>
              <path class="cls-4" d="M28.38,16.98l-2.15-11.16c-.17-.88-.5-1.69-.94-2.41-1.6-2.59-4.75-3.99-7.89-3.19l-1.56.4c-4.01,1.03-6.32,5.22-5.05,9.16l3.29,10.21c2.48-1.08,5.17-1.68,7.96-1.77.24,0,.48-.02.71-.02h4.13c.55,0,1.1.03,1.64.07-.02-.45-.07-.89-.15-1.3Z"/>
              <path class="cls-4" d="M34.73.63l-1.56-.4c-2.16-.56-4.34-.06-6,1.15.15.2.29.4.42.61.64,1.03,1.07,2.15,1.3,3.32l2.15,11.16c.1.51.16,1.06.19,1.68l.03.52c1.79.37,3.5.95,5.1,1.73l3.42-10.61c1.27-3.94-1.04-8.13-5.05-9.16Z"/>
            </g>
          </g>
        </g>
        <path class="cls-1" d="M26.89,21.46h-4.13c-10.65,0-19.1,8.98-18.45,19.61l.71,11.69-5.01,5.92,9.55-4.04,4.18-1.74,1.04-.43-.73-11.99c-.15-2.43.69-4.74,2.36-6.51,1.67-1.77,3.92-2.75,6.36-2.75h4.13c2.43,0,4.69.98,6.36,2.75,1.67,1.77,2.5,4.08,2.36,6.51l-.21,3.41,8.56-3.56,1.41-.59c-.1-10.04-8.28-18.28-18.48-18.28Z"/>
        <path class="cls-1" d="M50.56,41.07l-8.95,3.76-6.43,2.67-20.2,8.4-9.54,3.97.63,10.31v.09c.61,9.91,8.82,24.29,18.75,24.29h0c9.93,0,18.15-14.38,18.75-24.29l.98-16.09.3-4.9,5.72-8.21ZM33.83,69.68c-.16,2.69-1.51,7.1-4.14,10.87-2.24,3.21-4.25,4.25-4.87,4.25s-2.63-1.04-4.87-4.25c-2.63-3.78-3.98-8.18-4.14-10.87l-.21-3.47,18.91-7.87-.69,11.33Z"/>
      </g>
      <g>
        <g>
          <path class="cls-3" d="M91.68,85.07c0-3.46,2.25-5.34,5.01-5.34,1.6,0,3.16.77,3.87,2.04.24.44.16,1.09-.31,1.38-.43.27-1.09.26-1.39-.22-.46-.71-1.16-1.25-2.17-1.25-1.5,0-2.83,1.12-2.83,3.38s1.36,3.41,2.86,3.41c.95,0,1.81-.51,2.27-1.28.26-.43.94-.49,1.38-.21.42.27.55.88.28,1.38-.68,1.28-2.27,2.06-3.93,2.06-2.76,0-5.03-1.86-5.03-5.36Z"/>
          <path class="cls-3" d="M114.55,88.25h-4.04l-.54,1.38c-.23.59-.86.86-1.48.63-.57-.2-.87-.81-.66-1.28l3.52-8.38c.21-.5.65-.78,1.17-.78.57,0,.99.28,1.2.78l3.49,8.38c.2.49-.09,1.08-.65,1.28-.61.22-1.23-.06-1.47-.63l-.55-1.38ZM111.27,86.34h2.52l-1.26-3.18-1.26,3.18Z"/>
          <path class="cls-3" d="M126.97,89.31c0,.63-.48,1.04-1.09,1.04s-1.09-.4-1.09-1.04v-8.11c0-.73.49-1.22,1.22-1.22h3.44c2.44,0,3.44,1.58,3.44,3.29,0,1.18-.49,2.31-1.6,2.88l1.56,2.63c.29.49.18,1.1-.34,1.42-.51.3-1.1.18-1.42-.37l-1.94-3.27h-2.2v2.76ZM126.97,84.62h2.31c1.1,0,1.45-.62,1.45-1.36s-.35-1.36-1.45-1.36h-2.31v2.71Z"/>
          <path class="cls-3" d="M143.25,89.31c0,.63-.48,1.04-1.09,1.04s-1.09-.4-1.09-1.04v-8.11c0-.73.49-1.22,1.22-1.22h3.44c2.44,0,3.44,1.58,3.44,3.29,0,1.18-.49,2.31-1.6,2.88l1.56,2.63c.29.49.18,1.1-.34,1.42-.51.3-1.1.18-1.42-.37l-1.94-3.27h-2.2v2.76ZM143.25,84.62h2.31c1.1,0,1.45-.62,1.45-1.36s-.35-1.36-1.45-1.36h-2.31v2.71Z"/>
          <path class="cls-3" d="M166.73,85.07c0,3.54-2.37,5.36-4.93,5.36s-4.97-1.82-4.97-5.36,2.38-5.34,4.97-5.34,4.93,1.8,4.93,5.34ZM159,85.07c0,2.13,1.27,3.43,2.8,3.43s2.76-1.31,2.76-3.43-1.27-3.41-2.76-3.41-2.8,1.28-2.8,3.41Z"/>
          <path class="cls-3" d="M174.15,81.91c-.53,0-.88-.46-.88-.96s.35-.96.88-.96h6.96c.53,0,.88.46.88.96s-.35.96-.88.96h-2.37v7.4c0,.63-.5,1.04-1.11,1.04s-1.11-.4-1.11-1.04v-7.4h-2.37Z"/>
          <path class="cls-3" d="M201.22,90.19c-.73,0-1.22-.49-1.22-1.22v-7.77c0-.73.49-1.22,1.22-1.22h2.48c3.15,0,4.81,2.12,4.81,5.09s-1.66,5.12-4.82,5.12h-2.47ZM202.17,81.91v6.35h1.34c2.04,0,2.82-1.26,2.82-3.19s-.77-3.16-2.82-3.16h-1.34Z"/>
          <path class="cls-3" d="M218.74,84.11h4.29c.53,0,.88.46.88.96s-.35.96-.88.96h-4.29v2.2h4.71c.53,0,.88.48.88.98s-.35.98-.88.98h-5.67c-.73,0-1.22-.49-1.22-1.22v-7.77c0-.73.49-1.22,1.22-1.22h5.4c.53,0,.88.48.88.98s-.35.98-.88.98h-4.45v2.17Z"/>
          <path class="cls-3" d="M237.58,87.33c0-.75-.68-1.07-1.99-1.39-2.13-.51-3.65-1.32-3.65-3.24,0-2.11,1.86-2.97,3.86-2.97,1.2,0,2.5.35,3.37,1.21.22.22.34.51.34.79,0,.49-.44.98-1.01.98-.24,0-.45-.11-.71-.32-.61-.5-1.21-.76-1.95-.76-1.03,0-1.75.32-1.75.99,0,.79.9,1.07,2.26,1.42,1.82.45,3.42,1.26,3.42,3.16,0,2.38-2.17,3.22-4.04,3.22-1.31,0-2.78-.37-3.82-1.64-.16-.2-.22-.45-.22-.67,0-.56.46-.96,1-.96.26,0,.59.1.83.34.67.67,1.49,1.03,2.32,1.03.76,0,1.75-.31,1.75-1.2Z"/>
          <path class="cls-3" d="M251.08,81.91v6.35h.6c.53,0,.83.46.83.96s-.3.96-.83.96h-3.4c-.53,0-.83-.46-.83-.96s.31-.96.83-.96h.6v-6.35h-.6c-.53,0-.83-.46-.83-.96s.31-.96.83-.96h3.4c.53,0,.83.46.83.96s-.3.96-.83.96h-.6Z"/>
          <path class="cls-3" d="M267.75,86.44h-2.15c-.53,0-.88-.45-.88-.94s.35-.94.88-.94h3.25c.73,0,1.1.48,1.1,1.09,0,2.38-1.58,4.78-4.71,4.79-2.77.01-5.03-1.86-5.03-5.36s2.25-5.34,5.01-5.34c1.77,0,3.35.86,3.97,1.93.26.44.17,1.05-.29,1.34-.43.27-1.06.21-1.39-.22-.45-.59-1.15-1.1-2.28-1.1-1.5,0-2.83,1.12-2.83,3.38s1.33,3.43,2.86,3.43c1.38,0,2.38-.93,2.52-2.06Z"/>
          <path class="cls-3" d="M284.44,86.2v-5.34c0-.64.48-1.04,1.09-1.04s1.09.4,1.09,1.04v8.48c0,.62-.51,1.01-1.07,1.01-.43,0-.71-.16-.9-.42l-4.58-5.97v5.35c0,.63-.48,1.04-1.09,1.04s-1.09-.4-1.09-1.04v-8.45c0-.65.53-1.04,1.06-1.04.49,0,.72.17.93.44l4.57,5.93Z"/>
        </g>
        <g>
          <path class="cls-1" d="M70.77,24.5c0-1.84,1.5-3.34,3.34-3.34h19.71c1.84,0,3.34,1.5,3.34,3.34s-1.5,3.34-3.34,3.34h-14.43v9.2c6.49,0,12.59-.53,17.92-1.84.19-.05.58-.1.87-.1,1.84,0,3.34,1.5,3.34,3.34,0,1.55-1.11,2.86-2.52,3.2-6.83,1.65-13.75,2.08-22.47,2.08h-2.42c-1.84,0-3.34-1.5-3.34-3.34v-15.88ZM81.57,65.42c-5.08,0-9.25-3.97-9.25-9.06s4.17-9.1,9.25-9.1h21.07c5.13,0,9.3,3.97,9.3,9.1s-4.16,9.06-9.3,9.06h-21.07ZM83.51,58.83h17.19c1.45,0,2.62-1.02,2.62-2.47s-1.16-2.52-2.62-2.52h-17.19c-1.45,0-2.57,1.06-2.57,2.52s1.11,2.47,2.57,2.47ZM102.74,24.3c0-2.47,1.94-4.36,4.36-4.36s4.36,1.89,4.36,4.36v5.08h2.62c1.89,0,3.39,1.5,3.39,3.39s-1.5,3.39-3.39,3.39h-2.62v6.01c0,2.52-1.94,4.36-4.36,4.36s-4.36-1.84-4.36-4.36v-17.87Z"/>
          <path class="cls-1" d="M121.63,39.66h27.36c1.74-3.39,2.91-9.25,2.91-11.96h-28.82c-1.89,0-3.39-1.45-3.39-3.39s1.5-3.39,3.39-3.39h34.19c1.84,0,3.34,1.5,3.34,3.34,0,6.34-1.11,11.28-2.76,15.4h1.5c1.94,0,3.44,1.55,3.44,3.44s-1.5,3.34-3.44,3.34h-37.73c-1.84,0-3.39-1.55-3.39-3.34,0-1.89,1.55-3.44,3.39-3.44ZM119.93,52.97c0-2.42,1.94-4.12,4.36-4.12s4.36,1.7,4.36,4.12v5.67h30.03c1.89,0,3.39,1.5,3.39,3.39s-1.5,3.39-3.39,3.39h-34.63c-2.13,0-4.12-1.6-4.12-4.12v-8.33Z"/>
          <path class="cls-1" d="M170.99,63.48c-1.84,0-3.34-1.5-3.34-3.34V25.22c0-1.84,1.5-3.34,3.34-3.34h20.82c1.99,0,3.58,1.6,3.58,3.58s-1.6,3.58-3.58,3.58h-15.55v27.27c6.34,0,14.05-.39,18.94-1.6.19-.05.63-.1.97-.1,1.99,0,3.58,1.6,3.58,3.58,0,1.69-1.16,3.1-2.76,3.49-6.93,1.65-14.63,1.79-23.58,1.79h-2.42ZM200.96,24.3c0-2.47,1.94-4.36,4.36-4.36s4.36,1.89,4.36,4.36v37.24c0,2.52-1.94,4.36-4.36,4.36s-4.36-1.84-4.36-4.36V24.3Z"/>
          <path class="cls-1" d="M216.56,56.66c6.2-5.52,9.2-12.93,9.2-25.62v-1.99h-6.63c-1.94,0-3.54-1.6-3.54-3.54,0-2.03,1.6-3.63,3.54-3.63h21.89c2.13,0,3.63,1.6,3.63,3.63s-1.5,3.54-3.63,3.54h-6.54v1.99c0,12.69,2.95,19.9,9.15,25.42.87.78,1.5,1.84,1.5,3.25,0,2.32-1.69,4.02-4.12,4.02-1.11,0-2.23-.34-2.91-.97-3.63-3.39-6.3-6.97-7.99-12.01-1.69,5.18-4.31,8.86-7.94,12.25-.68.63-1.84.97-2.95.97-2.42,0-4.12-1.69-4.12-4.02,0-1.4.58-2.52,1.45-3.29ZM248.04,24.3c0-2.47,1.94-4.36,4.36-4.36s4.36,1.89,4.36,4.36v13.37h2.37c1.99,0,3.63,1.6,3.63,3.63s-1.65,3.63-3.63,3.63h-2.37v16.61c0,2.52-1.94,4.36-4.36,4.36s-4.36-1.84-4.36-4.36V24.3Z"/>
          <path class="cls-1" d="M264.51,30.99c0-6.93,6.01-10.56,13.17-10.56s13.22,3.63,13.22,10.56v5.47c0,6.93-6.05,10.51-13.22,10.51s-13.17-3.58-13.17-10.51v-5.47ZM266.55,52.68c0-2.42,1.94-3.87,4.36-3.87s4.36,1.45,4.36,3.87v5.96h28.86c1.89,0,3.39,1.5,3.39,3.39s-1.5,3.39-3.39,3.39h-33.46c-2.13,0-4.12-1.6-4.12-4.12v-8.62ZM273.13,36.46c0,2.66,2.23,3.83,4.6,3.83s4.55-1.16,4.55-3.83v-5.47c0-2.66-2.18-3.87-4.55-3.87s-4.6,1.21-4.6,3.87v5.47ZM297.83,24.3c0-2.47,1.94-4.36,4.36-4.36s4.36,1.89,4.36,4.36v25.47c0,2.52-1.94,4.36-4.36,4.36s-4.36-1.84-4.36-4.36v-25.47Z"/>
        </g>
      </g>
    </g>
  </g>
</svg>